PathFileType	4	(X/Y/Z)	c:/Users/goper/Files/vsCode/490R/osim_files/A02/A02_PWS_04.trc
DataRate	CameraRate	NumFrames	NumMarkers	Units                	OrigDataRate	OrigDataStartFrame	OrigNumFrames
250.00	250.00	7	36	mm	250.0	2037	3258
                Frame#	Time	Mobility_markerset:LPSIS			Mobility_markerset:LASIS			Mobility_markerset:LTH1			Mobility_markerset:LTH2			Mobility_markerset:LTH3			Mobility_markerset:LTH4			Mobility_markerset:LLFE			Mobility_markerset:LMFE			Mobility_markerset:LSH1			Mobility_markerset:LSH2			Mobility_markerset:LSH3			Mobility_markerset:LSH4			Mobility_markerset:LLMAL			Mobility_markerset:LMMAL			Mobility_markerset:LCAL			Mobility_markerset:LMTP5			Mobility_markerset:LTOE			Mobility_markerset:LMTP1			Mobility_markerset:RPSIS			Mobility_markerset:RASIS			Mobility_markerset:RTH1			Mobility_markerset:RTH2			Mobility_markerset:RTH3			Mobility_markerset:RTH4			Mobility_markerset:RLFE			Mobility_markerset:RMFE			Mobility_markerset:RSH1			Mobility_markerset:RSH2			Mobility_markerset:RSH3			Mobility_markerset:RSH4			Mobility_markerset:RLMAL			Mobility_markerset:RMMAL			Mobility_markerset:RCAL			Mobility_markerset:RMTP1			Mobility_markerset:RTOE			Mobility_markerset:RMTP5		
		X1	Y1	Z1	X2	Y2	Z2	X3	Y3	Z3	X4	Y4	Z4	X5	Y5	Z5	X6	Y6	Z6	X7	Y7	Z7	X8	Y8	Z8	X9	Y9	Z9	X10	Y10	Z10	X11	Y11	Z11	X12	Y12	Z12	X13	Y13	Z13	X14	Y14	Z14	X15	Y15	Z15	X16	Y16	Z16	X17	Y17	Z17	X18	Y18	Z18	X19	Y19	Z19	X20	Y20	Z20	X21	Y21	Z21	X22	Y22	Z22	X23	Y23	Z23	X24	Y24	Z24	X25	Y25	Z25	X26	Y26	Z26	X27	Y27	Z27	X28	Y28	Z28	X29	Y29	Z29	X30	Y30	Z30	X31	Y31	Z31	X32	Y32	Z32	X33	Y33	Z33	X34	Y34	Z34	X35	Y35	Z35	X36	Y36	Z36

2037	8.14400	0.00000	0.00000	0.00000	-2743.34302	862.50446	426.44452	0.00000	0.00000	0.00000	0.00000	0.00000	0.00000	-2804.71948	652.90607	470.57690	-2830.26489	616.91071	461.45459	-2933.20679	471.51022	416.02487	-2957.96484	464.72116	300.67609	-2882.10693	382.31589	412.33255	-2886.06104	337.30905	415.63684	-2942.77515	384.55344	418.39380	-2940.48071	339.97171	422.93546	-2935.26611	98.08057	376.23364	-2948.02856	103.92033	293.70645	-2871.53271	75.30313	328.46167	-3030.91992	51.77663	392.97650	-3080.77271	77.59325	329.89600	-3049.21094	46.89276	283.84668	-2592.90479	901.75146	256.66550	-2750.48877	885.63739	183.83517	-2651.70093	593.09277	142.83243	-2640.60449	550.48242	143.59729	-2708.68677	570.36365	144.79663	-2688.49902	532.45209	143.06157	-2609.09448	441.92557	135.38145	-2626.70728	436.50485	269.19739	-2463.98877	327.92807	166.66331	-2433.88647	295.10425	178.58231	-2504.72144	284.33823	163.93192	-2468.02759	255.45773	173.75150	-2312.28247	185.56941	186.61417	-2324.47729	184.05217	270.91125	-2262.56836	209.88890	231.28532	-2387.54663	70.70606	269.27518	-2409.95776	62.66899	234.24625	-2378.62036	71.54152	177.44258
2038	8.14800	-2594.46118	881.57379	356.84903	-2748.81543	863.70551	426.87067	0.00000	0.00000	0.00000	0.00000	0.00000	0.00000	-2810.22803	653.66833	471.16605	-2838.42700	618.72852	462.14307	-2937.50708	471.05435	417.00272	-2963.23120	464.63065	301.54251	-2885.62256	382.64871	412.45786	-2889.06201	337.67538	415.67734	-2946.34375	384.08936	419.07309	-2942.71899	339.33890	422.95941	-2935.41479	97.91116	375.89740	-2948.72534	104.04359	293.67319	-2871.83740	75.58549	328.45306	-3031.16089	51.39653	393.14960	-3081.34863	76.53722	329.88449	-3049.56494	46.16097	283.78729	-2599.08862	902.45282	255.92575	-2756.86963	886.64642	184.11685	-2658.73096	592.54913	142.38983	-2648.52148	549.67725	143.58333	-2716.28223	570.18237	144.76872	-2696.69629	532.07495	142.93658	-2618.16016	440.64792	134.95418	-2635.79736	435.11685	268.86230	-2471.54810	329.41739	165.58705	-2440.73975	296.61188	178.30359	-2511.48193	284.78323	163.61737	-2474.39209	256.31750	173.47803	-2317.97998	189.27065	186.54222	-2329.85327	187.15518	270.56445	-2268.94458	214.94067	231.05054	-2389.86670	72.20538	269.09146	-2412.21802	63.57761	234.16917	-2381.07104	73.32109	177.27434
2039	8.15200	-2600.14697	882.34479	356.08258	-2754.47144	864.95715	427.39993	0.00000	0.00000	0.00000	0.00000	0.00000	0.00000	-2815.33252	654.09363	471.57346	-2840.60327	617.67529	462.07587	-2941.61377	470.36581	417.95450	-2968.12280	464.40311	302.35681	-2888.85669	382.97662	412.48288	-2891.72168	338.05511	415.59564	-2949.72510	383.66830	419.75735	-2945.53247	339.01938	423.43619	-2935.84790	97.95882	375.82904	-2949.20972	104.22102	293.70782	0.00000	0.00000	0.00000	-3031.42993	51.06090	393.30026	-3081.77710	75.51104	329.89182	-3049.91553	45.59243	283.73862	-2605.08984	903.45502	254.99796	-2763.21240	887.72839	184.43623	-2665.47461	591.70197	143.64244	-2656.25562	548.36255	143.49338	-2723.87305	569.98511	144.80551	-2704.75073	531.65472	142.80737	-2627.22656	439.36819	134.59320	-2644.75049	433.60498	268.53891	-2478.96582	330.32227	165.36052	-2447.69946	298.09546	178.01625	-2518.61426	284.96561	163.16098	-2480.71362	257.22955	173.17126	-2323.63184	192.81950	186.36310	-2335.44336	190.34074	270.34052	-2275.29736	219.85854	230.75600	-2392.45923	73.84756	268.82736	-2414.65527	64.71282	233.89505	-2383.74707	75.07073	177.10709
2040	8.15600	-2605.31128	883.31915	354.91122	-2759.85889	866.13342	427.80154	0.00000	0.00000	0.00000	0.00000	0.00000	0.00000	-2819.60205	654.03271	471.78067	-2845.22998	617.69824	462.55246	-2945.39575	469.61038	418.76111	-2972.91162	464.19370	303.05014	-2892.09814	383.42227	412.70938	-2894.22144	338.42398	415.69739	-2952.88477	383.40796	420.40903	-2947.87476	338.64301	423.87524	-2936.28467	98.02905	375.75937	-2949.95947	104.19246	293.66611	0.00000	0.00000	0.00000	-3031.69922	50.81846	393.43082	-3081.91211	74.55320	330.81454	-3050.16675	45.06796	283.66620	-2611.22046	904.40906	254.19427	-2769.61084	888.88684	184.78726	-2672.76221	590.61310	143.82471	-2664.11914	547.20184	143.46988	-2731.54224	569.72418	144.89145	-2713.13843	530.74744	143.03391	-2636.84839	438.14929	134.60072	-2653.60132	431.78702	267.73563	-2486.25708	330.75528	165.75162	-2454.74536	299.43036	177.73810	-2524.97803	285.41989	163.01807	-2486.95703	258.13684	172.97334	-2329.28125	196.38580	186.22261	-2341.03442	193.26698	270.15573	-2281.71753	224.43829	230.51434	-2395.24805	75.53777	268.53180	-2417.33154	65.93747	233.71935	-2386.67822	76.90177	176.88977
2041	8.16000	-2610.87793	884.70929	356.09332	-2765.34961	867.35388	428.27829	0.00000	0.00000	0.00000	0.00000	0.00000	0.00000	-2824.98633	654.32007	472.29779	-2849.32764	617.41425	463.40082	-2949.03003	468.85831	419.67746	-2977.45288	463.85495	303.70181	-2894.92578	383.79575	412.82864	-2896.70996	338.67712	415.76294	-2954.96582	382.62485	420.60431	-2950.27466	338.42026	424.48666	-2936.90820	98.21198	375.75949	-2950.36035	104.32843	293.72629	-2872.51221	76.32801	328.41611	-3031.94629	50.64539	393.53082	-3082.63721	73.69437	329.81976	-3050.40894	44.50166	283.52997	-2617.42944	905.47986	253.58611	-2775.92603	890.14490	185.11061	-2679.98145	589.49097	143.96918	-2673.28442	545.45428	143.41849	-2739.06982	569.33551	144.97101	-2720.62939	530.20959	142.51765	-2645.16235	436.71869	134.17581	-2662.68921	430.35440	267.97949	-2493.70386	331.56601	165.42490	-2461.58667	300.73447	177.48680	-2531.68066	285.69473	162.65439	-2493.44678	258.97421	172.74825	-2334.99805	199.68040	185.83961	-2346.72998	196.27692	269.93689	-2288.00024	228.45818	230.34470	-2398.68359	77.44025	268.13235	-2420.82373	67.63120	233.28226	-2391.04980	78.60052	176.61473
2042	8.16400	-2616.54614	885.78766	355.53610	-2769.59595	867.99396	428.47742	0.00000	0.00000	0.00000	0.00000	0.00000	0.00000	-2829.33984	653.94769	472.65802	-2854.33887	617.38092	463.12265	-2952.39746	468.11514	420.33078	-2981.70239	463.33945	304.34030	-2897.82495	384.33240	413.06168	-2898.91992	339.17847	415.92685	-2957.72534	382.38821	421.25787	-2952.34204	338.18875	425.05249	-2937.22241	98.21353	375.62851	-2950.83960	104.39926	293.70911	-2872.69604	76.59405	328.41699	-3032.14355	50.46550	393.59491	-3082.89575	72.84917	329.78815	-3050.65967	44.14751	283.47327	-2623.73413	906.45056	253.17960	-2784.23608	892.01874	184.81326	-2687.75024	588.56982	143.05846	-2680.88013	544.34180	143.50217	-2746.48535	569.00024	145.16548	-2728.22778	529.40607	142.42860	-2654.12305	435.16373	133.78004	-2671.49048	428.74490	267.69019	-2501.48633	332.97690	164.33656	-2468.71582	301.94867	177.19411	-2538.57495	285.94202	162.35245	-2499.90015	259.66699	172.39705	-2340.51953	202.53337	185.78848	-2352.41772	199.28905	269.72308	-2293.64648	231.72621	230.04109	-2403.04053	79.74850	267.72177	-2425.21045	69.84065	232.93523	-2394.57617	81.72592	175.84532
2043	8.16800	0.00000	0.00000	0.00000	-2776.10156	869.68518	429.11432	0.00000	0.00000	0.00000	0.00000	0.00000	0.00000	-2833.92139	653.70300	472.89212	-2858.70337	616.95807	463.39368	-2955.73340	467.41806	421.06744	-2985.88257	462.85040	305.00253	-2900.27271	384.59402	412.96991	-2901.02979	339.56079	416.02899	-2960.24463	382.15768	421.93994	-2954.66528	338.12976	425.63474	-2937.82910	98.46016	375.76602	-2951.25806	104.49342	293.70264	-2872.94019	76.82086	328.32446	-3032.30566	50.29830	393.67282	-3083.18042	72.17187	329.76120	-3050.89209	43.81033	283.37497	-2629.77148	907.54242	252.78554	-2790.26709	893.35516	185.23602	-2695.29346	587.63531	142.04370	-2688.73804	543.28497	143.70793	-2753.85132	568.66864	145.42867	-2736.63501	529.28412	143.05061	-2662.88428	434.21112	133.66125	-2680.27637	427.34515	267.48660	-2508.76440	333.19473	164.86246	-2475.74805	303.21439	176.92770	-2545.47827	286.29300	162.02008	-2506.47974	260.60117	172.04059	0.00000	0.00000	0.00000	-2357.46460	201.61600	269.04639	-2299.29150	234.52290	229.63123	-2408.06592	82.11626	267.26663	-2430.08203	72.08778	232.45749	-2399.49829	84.05578	175.48346
